<svg width="752" height="411" viewBox="0 0 752 411" fill="none" xmlns="http://www.w3.org/2000/svg">
<rect width="752" height="411" rx="20" fill="white" fill-opacity="0.06"/>
<rect x="0.5" y="0.5" width="751" height="410" rx="19.5" stroke="white" stroke-opacity="0.05"/>
<path d="M28.284 35.83H24.288V34.12H34.206V35.83H30.192V46H28.284V35.83ZM39.734 37.162V38.836H39.158C38.414 38.836 37.796 39.052 37.304 39.484C36.812 39.904 36.566 40.504 36.566 41.284V46H34.676V37.162H36.44V38.314C36.752 37.918 37.13 37.612 37.574 37.396C38.03 37.18 38.51 37.072 39.014 37.072C39.278 37.072 39.518 37.102 39.734 37.162ZM44.2922 36.964C45.3842 36.964 46.2602 37.282 46.9202 37.918C47.5802 38.554 47.9102 39.466 47.9102 40.654V46H46.1462V45.01C45.8222 45.394 45.4202 45.688 44.9402 45.892C44.4602 46.096 43.9202 46.198 43.3202 46.198C42.3962 46.198 41.6522 45.964 41.0882 45.496C40.5242 45.028 40.2422 44.41 40.2422 43.642C40.2422 42.874 40.5362 42.262 41.1242 41.806C41.7122 41.35 42.5042 41.122 43.5002 41.122H46.0022V40.546C46.0022 39.934 45.8342 39.466 45.4982 39.142C45.1742 38.818 44.7122 38.656 44.1122 38.656C43.6202 38.656 43.1822 38.764 42.7982 38.98C42.4142 39.196 42.0362 39.526 41.6642 39.97L40.5662 38.854C41.0102 38.218 41.5502 37.744 42.1862 37.432C42.8222 37.12 43.5242 36.964 44.2922 36.964ZM43.7162 44.74C44.3522 44.74 44.8922 44.542 45.3362 44.146C45.7802 43.75 46.0022 43.252 46.0022 42.652V42.49H43.7342C43.2302 42.49 42.8402 42.58 42.5642 42.76C42.3002 42.94 42.1682 43.21 42.1682 43.57C42.1682 43.942 42.3122 44.23 42.6002 44.434C42.8882 44.638 43.2602 44.74 43.7162 44.74ZM54.5906 36.964C55.6226 36.964 56.4326 37.288 57.0206 37.936C57.6086 38.572 57.9026 39.418 57.9026 40.474V46H56.0126V40.726C56.0126 40.114 55.8326 39.622 55.4726 39.25C55.1246 38.866 54.6626 38.674 54.0866 38.674C53.4986 38.674 53.0126 38.866 52.6286 39.25C52.2566 39.634 52.0706 40.126 52.0706 40.726V46H50.1806V37.162H51.9446V38.026C52.6166 37.318 53.4986 36.964 54.5906 36.964ZM62.9101 46.198C62.1541 46.198 61.4701 46.042 60.8581 45.73C60.2461 45.418 59.7421 45.004 59.3461 44.488L60.4261 43.3C60.8101 43.708 61.2001 44.02 61.5961 44.236C62.0041 44.452 62.4421 44.56 62.9101 44.56C63.3181 44.56 63.6541 44.476 63.9181 44.308C64.1941 44.14 64.3321 43.894 64.3321 43.57C64.3321 43.306 64.2301 43.102 64.0261 42.958C63.8341 42.814 63.5221 42.652 63.0901 42.472L62.1901 42.094C61.4101 41.77 60.8281 41.416 60.4441 41.032C60.0721 40.648 59.8861 40.144 59.8861 39.52C59.8861 38.728 60.1801 38.104 60.7681 37.648C61.3561 37.192 62.1001 36.964 63.0001 36.964C64.2721 36.964 65.2921 37.42 66.0601 38.332L65.0341 39.502C64.7581 39.214 64.4401 38.992 64.0801 38.836C63.7201 38.68 63.3481 38.602 62.9641 38.602C62.5921 38.602 62.2981 38.674 62.0821 38.818C61.8661 38.962 61.7581 39.172 61.7581 39.448C61.7581 39.676 61.8421 39.862 62.0101 40.006C62.1901 40.15 62.4961 40.312 62.9281 40.492L63.7741 40.834C64.6141 41.182 65.2261 41.56 65.6101 41.968C65.9941 42.364 66.1861 42.874 66.1861 43.498C66.1861 44.35 65.8741 45.016 65.2501 45.496C64.6261 45.964 63.8461 46.198 62.9101 46.198ZM71.4075 36.964C72.4995 36.964 73.3755 37.282 74.0355 37.918C74.6955 38.554 75.0255 39.466 75.0255 40.654V46H73.2615V45.01C72.9375 45.394 72.5355 45.688 72.0555 45.892C71.5755 46.096 71.0355 46.198 70.4355 46.198C69.5115 46.198 68.7675 45.964 68.2035 45.496C67.6395 45.028 67.3575 44.41 67.3575 43.642C67.3575 42.874 67.6515 42.262 68.2395 41.806C68.8275 41.35 69.6195 41.122 70.6155 41.122H73.1175V40.546C73.1175 39.934 72.9495 39.466 72.6135 39.142C72.2895 38.818 71.8275 38.656 71.2275 38.656C70.7355 38.656 70.2975 38.764 69.9135 38.98C69.5295 39.196 69.1515 39.526 68.7795 39.97L67.6815 38.854C68.1255 38.218 68.6655 37.744 69.3015 37.432C69.9375 37.12 70.6395 36.964 71.4075 36.964ZM70.8315 44.74C71.4675 44.74 72.0075 44.542 72.4515 44.146C72.8955 43.75 73.1175 43.252 73.1175 42.652V42.49H70.8495C70.3455 42.49 69.9555 42.58 69.6795 42.76C69.4155 42.94 69.2835 43.21 69.2835 43.57C69.2835 43.942 69.4275 44.23 69.7155 44.434C70.0035 44.638 70.3755 44.74 70.8315 44.74ZM81.4179 46.198C80.5539 46.198 79.7619 45.994 79.0419 45.586C78.3339 45.178 77.7699 44.62 77.3499 43.912C76.9419 43.204 76.7379 42.424 76.7379 41.572C76.7379 40.72 76.9419 39.946 77.3499 39.25C77.7699 38.542 78.3399 37.984 79.0599 37.576C79.7799 37.168 80.5659 36.964 81.4179 36.964C82.2339 36.964 82.9599 37.15 83.5959 37.522C84.2439 37.882 84.7599 38.38 85.1439 39.016L83.8119 40.06C83.1759 39.16 82.3839 38.71 81.4359 38.71C80.9079 38.71 80.4339 38.836 80.0139 39.088C79.5939 39.34 79.2639 39.688 79.0239 40.132C78.7839 40.564 78.6639 41.044 78.6639 41.572C78.6639 42.112 78.7839 42.604 79.0239 43.048C79.2639 43.48 79.5939 43.822 80.0139 44.074C80.4339 44.326 80.9079 44.452 81.4359 44.452C82.3719 44.452 83.1639 44.008 83.8119 43.12L85.1439 44.146C84.7479 44.782 84.2259 45.286 83.5779 45.658C82.9419 46.018 82.2219 46.198 81.4179 46.198ZM92.1235 44.398V46C91.5355 46.132 91.0135 46.198 90.5575 46.198C89.5375 46.198 88.7395 45.946 88.1635 45.442C87.5875 44.926 87.2995 44.152 87.2995 43.12V38.8H85.8595V37.162H87.2995V34.84H89.2075V37.162H91.8355V38.8H89.2075V42.958C89.2075 43.522 89.3515 43.918 89.6395 44.146C89.9395 44.374 90.3775 44.488 90.9535 44.488C91.2175 44.488 91.6075 44.458 92.1235 44.398ZM93.6794 37.162H95.5694V46H93.6794V37.162ZM94.6334 35.11C94.2734 35.11 93.9674 34.99 93.7154 34.75C93.4634 34.51 93.3374 34.216 93.3374 33.868C93.3374 33.52 93.4634 33.226 93.7154 32.986C93.9674 32.734 94.2734 32.608 94.6334 32.608C94.9814 32.608 95.2814 32.734 95.5334 32.986C95.7854 33.226 95.9114 33.52 95.9114 33.868C95.9114 34.216 95.7854 34.51 95.5334 34.75C95.2814 34.99 94.9814 35.11 94.6334 35.11ZM102.046 46.198C101.194 46.198 100.408 45.994 99.6885 45.586C98.9805 45.166 98.4165 44.602 97.9965 43.894C97.5885 43.186 97.3845 42.412 97.3845 41.572C97.3845 40.72 97.5885 39.946 97.9965 39.25C98.4165 38.542 98.9805 37.984 99.6885 37.576C100.408 37.168 101.194 36.964 102.046 36.964C102.91 36.964 103.702 37.168 104.422 37.576C105.142 37.984 105.706 38.542 106.114 39.25C106.534 39.958 106.744 40.732 106.744 41.572C106.744 42.412 106.534 43.186 106.114 43.894C105.706 44.602 105.142 45.166 104.422 45.586C103.702 45.994 102.91 46.198 102.046 46.198ZM102.046 44.452C102.562 44.452 103.03 44.326 103.45 44.074C103.87 43.822 104.2 43.48 104.44 43.048C104.68 42.604 104.8 42.118 104.8 41.59C104.8 41.05 104.68 40.558 104.44 40.114C104.2 39.67 103.87 39.322 103.45 39.07C103.03 38.818 102.568 38.692 102.064 38.692C101.548 38.692 101.08 38.818 100.66 39.07C100.24 39.322 99.9105 39.67 99.6705 40.114C99.4305 40.558 99.3105 41.05 99.3105 41.59C99.3105 42.13 99.4305 42.622 99.6705 43.066C99.9105 43.498 100.234 43.84 100.642 44.092C101.062 44.332 101.53 44.452 102.046 44.452ZM112.961 36.964C113.993 36.964 114.803 37.288 115.391 37.936C115.979 38.572 116.273 39.418 116.273 40.474V46H114.383V40.726C114.383 40.114 114.203 39.622 113.843 39.25C113.495 38.866 113.033 38.674 112.457 38.674C111.869 38.674 111.383 38.866 110.999 39.25C110.627 39.634 110.441 40.126 110.441 40.726V46H108.551V37.162H110.315V38.026C110.987 37.318 111.869 36.964 112.961 36.964ZM121.281 46.198C120.525 46.198 119.841 46.042 119.229 45.73C118.617 45.418 118.113 45.004 117.717 44.488L118.797 43.3C119.181 43.708 119.571 44.02 119.967 44.236C120.375 44.452 120.813 44.56 121.281 44.56C121.689 44.56 122.025 44.476 122.289 44.308C122.565 44.14 122.703 43.894 122.703 43.57C122.703 43.306 122.601 43.102 122.397 42.958C122.205 42.814 121.893 42.652 121.461 42.472L120.561 42.094C119.781 41.77 119.199 41.416 118.815 41.032C118.443 40.648 118.257 40.144 118.257 39.52C118.257 38.728 118.551 38.104 119.139 37.648C119.727 37.192 120.471 36.964 121.371 36.964C122.643 36.964 123.663 37.42 124.431 38.332L123.405 39.502C123.129 39.214 122.811 38.992 122.451 38.836C122.091 38.68 121.719 38.602 121.335 38.602C120.963 38.602 120.669 38.674 120.453 38.818C120.237 38.962 120.129 39.172 120.129 39.448C120.129 39.676 120.213 39.862 120.381 40.006C120.561 40.15 120.867 40.312 121.299 40.492L122.145 40.834C122.985 41.182 123.597 41.56 123.981 41.968C124.365 42.364 124.557 42.874 124.557 43.498C124.557 44.35 124.245 45.016 123.621 45.496C122.997 45.964 122.217 46.198 121.281 46.198ZM140.317 34.12L135.079 46.198H134.431L129.193 34.12H131.335L134.755 42.382L138.175 34.12H140.317ZM144.737 46.198C143.885 46.198 143.099 45.994 142.379 45.586C141.671 45.166 141.107 44.602 140.687 43.894C140.279 43.186 140.075 42.412 140.075 41.572C140.075 40.72 140.279 39.946 140.687 39.25C141.107 38.542 141.671 37.984 142.379 37.576C143.099 37.168 143.885 36.964 144.737 36.964C145.601 36.964 146.393 37.168 147.113 37.576C147.833 37.984 148.397 38.542 148.805 39.25C149.225 39.958 149.435 40.732 149.435 41.572C149.435 42.412 149.225 43.186 148.805 43.894C148.397 44.602 147.833 45.166 147.113 45.586C146.393 45.994 145.601 46.198 144.737 46.198ZM144.737 44.452C145.253 44.452 145.721 44.326 146.141 44.074C146.561 43.822 146.891 43.48 147.131 43.048C147.371 42.604 147.491 42.118 147.491 41.59C147.491 41.05 147.371 40.558 147.131 40.114C146.891 39.67 146.561 39.322 146.141 39.07C145.721 38.818 145.259 38.692 144.755 38.692C144.239 38.692 143.771 38.818 143.351 39.07C142.931 39.322 142.601 39.67 142.361 40.114C142.121 40.558 142.001 41.05 142.001 41.59C142.001 42.13 142.121 42.622 142.361 43.066C142.601 43.498 142.925 43.84 143.333 44.092C143.753 44.332 144.221 44.452 144.737 44.452ZM151.241 32.5H153.131V46H151.241V32.5ZM159.284 46.198C158.552 46.198 157.892 46.042 157.304 45.73C156.716 45.406 156.254 44.95 155.918 44.362C155.582 43.762 155.414 43.072 155.414 42.292V37.162H157.286V42.436C157.286 43.048 157.472 43.54 157.844 43.912C158.228 44.272 158.708 44.452 159.284 44.452C159.836 44.452 160.298 44.272 160.67 43.912C161.042 43.54 161.228 43.048 161.228 42.436V37.162H163.118V42.292C163.118 43.072 162.95 43.762 162.614 44.362C162.278 44.95 161.816 45.406 161.228 45.73C160.652 46.042 160.004 46.198 159.284 46.198ZM175.4 36.964C176.42 36.964 177.218 37.288 177.794 37.936C178.382 38.572 178.676 39.418 178.676 40.474V46H176.768V40.744C176.768 40.12 176.6 39.622 176.264 39.25C175.94 38.878 175.496 38.692 174.932 38.692C174.356 38.692 173.888 38.878 173.528 39.25C173.168 39.622 172.988 40.09 172.988 40.654V46H171.098V40.744C171.098 40.132 170.93 39.64 170.594 39.268C170.258 38.884 169.808 38.692 169.244 38.692C168.668 38.692 168.2 38.884 167.84 39.268C167.48 39.64 167.3 40.132 167.3 40.744V46H165.41V37.162H167.174V37.99C167.486 37.666 167.858 37.414 168.29 37.234C168.722 37.054 169.202 36.964 169.73 36.964C170.342 36.964 170.876 37.09 171.332 37.342C171.788 37.582 172.148 37.918 172.412 38.35C172.736 37.93 173.156 37.594 173.672 37.342C174.2 37.09 174.776 36.964 175.4 36.964ZM188.897 42.202H182.309C182.429 42.922 182.747 43.492 183.263 43.912C183.791 44.32 184.433 44.524 185.189 44.524C186.113 44.524 186.971 44.176 187.763 43.48L188.663 44.776C187.655 45.724 186.479 46.198 185.135 46.198C184.235 46.198 183.425 46 182.705 45.604C181.985 45.196 181.415 44.644 180.995 43.948C180.587 43.24 180.383 42.454 180.383 41.59C180.383 40.738 180.581 39.958 180.977 39.25C181.385 38.542 181.937 37.984 182.633 37.576C183.341 37.168 184.115 36.964 184.955 36.964C185.735 36.964 186.431 37.144 187.043 37.504C187.667 37.852 188.153 38.332 188.501 38.944C188.861 39.556 189.041 40.246 189.041 41.014C189.041 41.386 188.993 41.782 188.897 42.202ZM184.883 38.566C184.259 38.566 183.713 38.764 183.245 39.16C182.789 39.544 182.489 40.066 182.345 40.726H187.151C187.139 40.054 186.911 39.526 186.467 39.142C186.035 38.758 185.507 38.566 184.883 38.566Z" fill="#FEFEFE"/>
<rect x="573" y="20" width="155" height="40" rx="20" fill="white" fill-opacity="0.1"/>
<path d="M590.162 34.76H591.646V42.67H595.874V44H590.162V34.76ZM599.635 36.972C600.484 36.972 601.166 37.2193 601.679 37.714C602.192 38.2087 602.449 38.918 602.449 39.842V44H601.077V43.23C600.825 43.5287 600.512 43.7573 600.139 43.916C599.766 44.0747 599.346 44.154 598.879 44.154C598.16 44.154 597.582 43.972 597.143 43.608C596.704 43.244 596.485 42.7633 596.485 42.166C596.485 41.5687 596.714 41.0927 597.171 40.738C597.628 40.3833 598.244 40.206 599.019 40.206H600.965V39.758C600.965 39.282 600.834 38.918 600.573 38.666C600.321 38.414 599.962 38.288 599.495 38.288C599.112 38.288 598.772 38.372 598.473 38.54C598.174 38.708 597.88 38.9647 597.591 39.31L596.737 38.442C597.082 37.9473 597.502 37.5787 597.997 37.336C598.492 37.0933 599.038 36.972 599.635 36.972ZM599.187 43.02C599.682 43.02 600.102 42.866 600.447 42.558C600.792 42.25 600.965 41.8627 600.965 41.396V41.27H599.201C598.809 41.27 598.506 41.34 598.291 41.48C598.086 41.62 597.983 41.83 597.983 42.11C597.983 42.3993 598.095 42.6233 598.319 42.782C598.543 42.9407 598.832 43.02 599.187 43.02ZM606.343 44.154C605.755 44.154 605.223 44.0327 604.747 43.79C604.271 43.5473 603.879 43.2253 603.571 42.824L604.411 41.9C604.71 42.2173 605.013 42.46 605.321 42.628C605.638 42.796 605.979 42.88 606.343 42.88C606.66 42.88 606.922 42.8147 607.127 42.684C607.342 42.5533 607.449 42.362 607.449 42.11C607.449 41.9047 607.37 41.746 607.211 41.634C607.062 41.522 606.819 41.396 606.483 41.256L605.783 40.962C605.176 40.71 604.724 40.4347 604.425 40.136C604.136 39.8373 603.991 39.4453 603.991 38.96C603.991 38.344 604.22 37.8587 604.677 37.504C605.134 37.1493 605.713 36.972 606.413 36.972C607.402 36.972 608.196 37.3267 608.793 38.036L607.995 38.946C607.78 38.722 607.533 38.5493 607.253 38.428C606.973 38.3067 606.684 38.246 606.385 38.246C606.096 38.246 605.867 38.302 605.699 38.414C605.531 38.526 605.447 38.6893 605.447 38.904C605.447 39.0813 605.512 39.226 605.643 39.338C605.783 39.45 606.021 39.576 606.357 39.716L607.015 39.982C607.668 40.2527 608.144 40.5467 608.443 40.864C608.742 41.172 608.891 41.5687 608.891 42.054C608.891 42.7167 608.648 43.2347 608.163 43.608C607.678 43.972 607.071 44.154 606.343 44.154ZM614.394 42.754V44C613.937 44.1027 613.531 44.154 613.176 44.154C612.383 44.154 611.762 43.958 611.314 43.566C610.866 43.1647 610.642 42.5627 610.642 41.76V38.4H609.522V37.126H610.642V35.32H612.126V37.126H614.17V38.4H612.126V41.634C612.126 42.0727 612.238 42.3807 612.462 42.558C612.695 42.7353 613.036 42.824 613.484 42.824C613.689 42.824 613.993 42.8007 614.394 42.754ZM628.124 34.606V44H626.64V38.204L623.994 41.676H623.49L620.83 38.19V44H619.346V34.606H619.864L623.742 39.772L627.62 34.606H628.124ZM633.193 44.154C632.531 44.154 631.919 43.9953 631.359 43.678C630.809 43.3513 630.37 42.9127 630.043 42.362C629.726 41.8113 629.567 41.2093 629.567 40.556C629.567 39.8933 629.726 39.2913 630.043 38.75C630.37 38.1993 630.809 37.7653 631.359 37.448C631.919 37.1307 632.531 36.972 633.193 36.972C633.865 36.972 634.481 37.1307 635.041 37.448C635.601 37.7653 636.04 38.1993 636.357 38.75C636.684 39.3007 636.847 39.9027 636.847 40.556C636.847 41.2093 636.684 41.8113 636.357 42.362C636.04 42.9127 635.601 43.3513 635.041 43.678C634.481 43.9953 633.865 44.154 633.193 44.154ZM633.193 42.796C633.595 42.796 633.959 42.698 634.285 42.502C634.612 42.306 634.869 42.04 635.055 41.704C635.242 41.3587 635.335 40.9807 635.335 40.57C635.335 40.15 635.242 39.7673 635.055 39.422C634.869 39.0767 634.612 38.806 634.285 38.61C633.959 38.414 633.599 38.316 633.207 38.316C632.806 38.316 632.442 38.414 632.115 38.61C631.789 38.806 631.532 39.0767 631.345 39.422C631.159 39.7673 631.065 40.15 631.065 40.57C631.065 40.99 631.159 41.3727 631.345 41.718C631.532 42.054 631.784 42.32 632.101 42.516C632.428 42.7027 632.792 42.796 633.193 42.796ZM641.682 36.972C642.485 36.972 643.115 37.224 643.572 37.728C644.03 38.2227 644.258 38.8807 644.258 39.702V44H642.788V39.898C642.788 39.422 642.648 39.0393 642.368 38.75C642.098 38.4513 641.738 38.302 641.29 38.302C640.833 38.302 640.455 38.4513 640.156 38.75C639.867 39.0487 639.722 39.4313 639.722 39.898V44H638.252V37.126H639.624V37.798C640.147 37.2473 640.833 36.972 641.682 36.972ZM650.113 42.754V44C649.656 44.1027 649.25 44.154 648.895 44.154C648.102 44.154 647.481 43.958 647.033 43.566C646.585 43.1647 646.361 42.5627 646.361 41.76V38.4H645.241V37.126H646.361V35.32H647.845V37.126H649.889V38.4H647.845V41.634C647.845 42.0727 647.957 42.3807 648.181 42.558C648.415 42.7353 648.755 42.824 649.203 42.824C649.409 42.824 649.712 42.8007 650.113 42.754ZM654.781 36.972C655.565 36.972 656.186 37.224 656.643 37.728C657.101 38.232 657.329 38.89 657.329 39.702V44H655.859V39.912C655.859 39.436 655.724 39.0533 655.453 38.764C655.183 38.4653 654.819 38.316 654.361 38.316C653.904 38.316 653.526 38.4653 653.227 38.764C652.938 39.0627 652.793 39.4453 652.793 39.912V44H651.323V33.5H652.793V37.812C653.027 37.5413 653.311 37.336 653.647 37.196C653.993 37.0467 654.371 36.972 654.781 36.972Z" fill="#DADADA"/>
<path d="M697 37.5L702 42.5L707 37.5" stroke="white" stroke-width="1.5" stroke-linecap="round" stroke-linejoin="round"/>
<line x1="56" y1="98.5" x2="729.43" y2="98.5" stroke="#ECD7E8" stroke-opacity="0.17" stroke-dasharray="6 6"/>
<line x1="56" y1="165.5" x2="729.43" y2="165.5" stroke="#ECD7E8" stroke-opacity="0.17" stroke-dasharray="6 6"/>
<line x1="56" y1="232.5" x2="729.43" y2="232.5" stroke="#ECD7E8" stroke-opacity="0.17" stroke-dasharray="6 6"/>
<line x1="56" y1="299.5" x2="729.43" y2="299.5" stroke="#AF3D9A" stroke-opacity="0.09" stroke-dasharray="6 6"/>
<line x1="56" y1="366.5" x2="729.43" y2="366.5" stroke="#AF3D9A" stroke-opacity="0.09" stroke-dasharray="6 6"/>
<path d="M25.523 97.42V106H24.509V98.616L22.637 99.201L22.39 98.33L25.146 97.42H25.523ZM31.3298 106.143C30.2811 106.143 29.4924 105.723 28.9638 104.882C28.4438 104.033 28.1838 102.949 28.1838 101.632C28.1838 100.323 28.4481 99.2703 28.9768 98.473C29.5054 97.6757 30.2898 97.277 31.3298 97.277C32.3698 97.277 33.1498 97.6757 33.6698 98.473C34.1984 99.2617 34.4628 100.315 34.4628 101.632C34.4628 102.949 34.2028 104.033 33.6828 104.882C33.1628 105.723 32.3784 106.143 31.3298 106.143ZM31.3298 105.207C32.0491 105.207 32.5734 104.886 32.9028 104.245C33.2408 103.604 33.4098 102.737 33.4098 101.645C33.4098 100.57 33.2451 99.7297 32.9158 99.123C32.5864 98.5163 32.0578 98.213 31.3298 98.213C30.6018 98.213 30.0688 98.5163 29.7308 99.123C29.4014 99.7297 29.2368 100.57 29.2368 101.645C29.2368 102.737 29.4058 103.604 29.7438 104.245C30.0818 104.886 30.6104 105.207 31.3298 105.207ZM39.7278 106.143C38.6792 106.143 37.8905 105.723 37.3618 104.882C36.8418 104.033 36.5818 102.949 36.5818 101.632C36.5818 100.323 36.8462 99.2703 37.3748 98.473C37.9035 97.6757 38.6878 97.277 39.7278 97.277C40.7678 97.277 41.5478 97.6757 42.0678 98.473C42.5965 99.2617 42.8608 100.315 42.8608 101.632C42.8608 102.949 42.6008 104.033 42.0808 104.882C41.5608 105.723 40.7765 106.143 39.7278 106.143ZM39.7278 105.207C40.4472 105.207 40.9715 104.886 41.3008 104.245C41.6388 103.604 41.8078 102.737 41.8078 101.645C41.8078 100.57 41.6432 99.7297 41.3138 99.123C40.9845 98.5163 40.4558 98.213 39.7278 98.213C38.9998 98.213 38.4668 98.5163 38.1288 99.123C37.7995 99.7297 37.6348 100.57 37.6348 101.645C37.6348 102.737 37.8038 103.604 38.1418 104.245C38.4798 104.886 39.0085 105.207 39.7278 105.207Z" fill="#D7D7D7" fill-opacity="0.92"/>
<path d="M35.188 162.92V163.219L30.846 171.5H29.741L33.823 163.83H29.455V162.92H35.188ZM39.4877 166.131C40.0164 166.131 40.5017 166.231 40.9437 166.43C41.3944 166.621 41.754 166.915 42.0227 167.314C42.2914 167.713 42.4257 168.202 42.4257 168.783C42.4257 169.355 42.2827 169.858 41.9967 170.291C41.7194 170.724 41.3467 171.058 40.8787 171.292C40.4194 171.526 39.921 171.643 39.3837 171.643C38.699 171.643 38.1054 171.478 37.6027 171.149C37.1087 170.82 36.7144 170.395 36.4197 169.875L37.1217 169.355C37.3904 169.762 37.7024 170.092 38.0577 170.343C38.4217 170.586 38.8594 170.707 39.3707 170.707C39.9514 170.707 40.428 170.534 40.8007 170.187C41.182 169.832 41.3727 169.368 41.3727 168.796C41.3727 168.233 41.182 167.795 40.8007 167.483C40.428 167.171 39.8907 167.015 39.1887 167.015H37.2517V162.92H41.9447V163.83H38.2657V166.235C38.6644 166.166 39.0717 166.131 39.4877 166.131Z" fill="#D7D7D7" fill-opacity="0.92"/>
<path d="M31.575 231.631C32.1037 231.631 32.589 231.731 33.031 231.93C33.4817 232.121 33.8413 232.415 34.11 232.814C34.3787 233.213 34.513 233.702 34.513 234.283C34.513 234.855 34.37 235.358 34.084 235.791C33.8067 236.224 33.434 236.558 32.966 236.792C32.5067 237.026 32.0083 237.143 31.471 237.143C30.7863 237.143 30.1927 236.978 29.69 236.649C29.196 236.32 28.8017 235.895 28.507 235.375L29.209 234.855C29.4777 235.262 29.7897 235.592 30.145 235.843C30.509 236.086 30.9467 236.207 31.458 236.207C32.0387 236.207 32.5153 236.034 32.888 235.687C33.2693 235.332 33.46 234.868 33.46 234.296C33.46 233.733 33.2693 233.295 32.888 232.983C32.5153 232.671 31.978 232.515 31.276 232.515H29.339V228.42H34.032V229.33H30.353V231.735C30.7517 231.666 31.159 231.631 31.575 231.631ZM39.6149 237.143C38.5663 237.143 37.7776 236.723 37.2489 235.882C36.7289 235.033 36.4689 233.949 36.4689 232.632C36.4689 231.323 36.7333 230.27 37.2619 229.473C37.7906 228.676 38.5749 228.277 39.6149 228.277C40.6549 228.277 41.4349 228.676 41.9549 229.473C42.4836 230.262 42.7479 231.315 42.7479 232.632C42.7479 233.949 42.4879 235.033 41.9679 235.882C41.4479 236.723 40.6636 237.143 39.6149 237.143ZM39.6149 236.207C40.3343 236.207 40.8586 235.886 41.1879 235.245C41.5259 234.604 41.6949 233.737 41.6949 232.645C41.6949 231.57 41.5303 230.73 41.2009 230.123C40.8716 229.516 40.3429 229.213 39.6149 229.213C38.8869 229.213 38.3539 229.516 38.0159 230.123C37.6866 230.73 37.5219 231.57 37.5219 232.645C37.5219 233.737 37.6909 234.604 38.0289 235.245C38.3669 235.886 38.8956 236.207 39.6149 236.207Z" fill="#D7D7D7" fill-opacity="0.92"/>
<path d="M35.578 301.59V302.5H29.611V302.24L32.666 298.99C33.186 298.444 33.5673 297.985 33.81 297.612C34.0527 297.231 34.174 296.836 34.174 296.429C34.174 295.952 34.0223 295.549 33.719 295.22C33.4243 294.882 33.0257 294.713 32.523 294.713C32.003 294.713 31.587 294.886 31.275 295.233C30.963 295.58 30.807 295.996 30.807 296.481C30.807 296.724 30.833 296.962 30.885 297.196H29.845C29.7843 296.962 29.754 296.711 29.754 296.442C29.754 295.991 29.8667 295.562 30.092 295.155C30.3173 294.739 30.638 294.405 31.054 294.154C31.4787 293.903 31.9683 293.777 32.523 293.777C33.043 293.777 33.5067 293.894 33.914 294.128C34.33 294.353 34.6507 294.665 34.876 295.064C35.11 295.454 35.227 295.892 35.227 296.377C35.227 296.776 35.1447 297.157 34.98 297.521C34.8153 297.885 34.6117 298.219 34.369 298.522C34.135 298.825 33.823 299.181 33.433 299.588L31.535 301.59H35.578ZM40.2494 297.131C40.7781 297.131 41.2634 297.231 41.7054 297.43C42.1561 297.621 42.5157 297.915 42.7844 298.314C43.0531 298.713 43.1874 299.202 43.1874 299.783C43.1874 300.355 43.0444 300.858 42.7584 301.291C42.4811 301.724 42.1084 302.058 41.6404 302.292C41.1811 302.526 40.6827 302.643 40.1454 302.643C39.4607 302.643 38.8671 302.478 38.3644 302.149C37.8704 301.82 37.4761 301.395 37.1814 300.875L37.8834 300.355C38.1521 300.762 38.4641 301.092 38.8194 301.343C39.1834 301.586 39.6211 301.707 40.1324 301.707C40.7131 301.707 41.1897 301.534 41.5624 301.187C41.9437 300.832 42.1344 300.368 42.1344 299.796C42.1344 299.233 41.9437 298.795 41.5624 298.483C41.1897 298.171 40.6524 298.015 39.9504 298.015H38.0134V293.92H42.7064V294.83H39.0274V297.235C39.4261 297.166 39.8334 297.131 40.2494 297.131Z" fill="#D7D7D7" fill-opacity="0.92"/>
<path d="M40.004 368.143C38.9553 368.143 38.1667 367.723 37.638 366.882C37.118 366.033 36.858 364.949 36.858 363.632C36.858 362.323 37.1223 361.27 37.651 360.473C38.1797 359.676 38.964 359.277 40.004 359.277C41.044 359.277 41.824 359.676 42.344 360.473C42.8727 361.262 43.137 362.315 43.137 363.632C43.137 364.949 42.877 366.033 42.357 366.882C41.837 367.723 41.0527 368.143 40.004 368.143ZM40.004 367.207C40.7233 367.207 41.2477 366.886 41.577 366.245C41.915 365.604 42.084 364.737 42.084 363.645C42.084 362.57 41.9193 361.73 41.59 361.123C41.2607 360.516 40.732 360.213 40.004 360.213C39.276 360.213 38.743 360.516 38.405 361.123C38.0757 361.73 37.911 362.57 37.911 363.645C37.911 364.737 38.08 365.604 38.418 366.245C38.756 366.886 39.2847 367.207 40.004 367.207Z" fill="#D7D7D7" fill-opacity="0.92"/>
<path d="M56 239.317C72.7649 240.824 113.162 249.041 140.685 220.38C168.208 191.718 199.259 181.482 226.076 194.277C252.893 207.073 295.235 255.695 322.758 226.522C344.776 203.183 367.288 156.719 379.991 134.881C390.807 116.288 420.569 104.505 442.022 136.442C463.476 168.379 486.717 194.106 495.656 202.978C519.252 220.38 538.545 214.452 565.521 188.135C608.586 146.123 630.446 154.356 677.729 180.458C715.555 201.34 727.834 201.784 729.245 199.395" stroke="url(#paint0_linear_133_472)" stroke-width="3" stroke-linecap="round"/>
<path opacity="0.28" d="M140.685 220.38C113.162 249.041 72.7649 240.824 56 239.317V365.113H729.245V199.395C727.834 201.784 715.555 201.34 677.729 180.458C630.446 154.356 615.627 150.261 565.521 188.135C525.437 218.435 519.252 220.38 495.656 202.978C486.717 194.106 463.476 168.379 442.022 136.442C420.569 104.505 390.807 116.288 379.991 134.881C367.288 156.719 344.776 203.183 322.758 226.522C295.235 255.695 252.893 207.073 226.076 194.277C199.259 181.482 168.208 191.718 140.685 220.38Z" fill="url(#paint1_linear_133_472)"/>
<rect x="441" y="137.6" width="20" height="20" rx="10" fill="url(#paint2_linear_133_472)"/>
<rect x="447" y="143.6" width="8" height="8" rx="4" fill="white"/>
<path d="M76.312 386V385.129C76.6673 385.181 76.9793 385.207 77.248 385.207C77.7073 385.207 78.0583 385.116 78.301 384.934C78.5437 384.743 78.665 384.405 78.665 383.92V377.42H79.679V384.011C79.679 384.73 79.4797 385.268 79.081 385.623C78.6823 385.97 78.1363 386.143 77.443 386.143C77.105 386.143 76.728 386.095 76.312 386ZM84.5661 379.526C85.3115 379.526 85.9095 379.747 86.3601 380.189C86.8108 380.631 87.0361 381.268 87.0361 382.1V386H86.1001V385.181C85.8661 385.493 85.5671 385.731 85.2031 385.896C84.8391 386.061 84.4275 386.143 83.9681 386.143C83.3181 386.143 82.7851 385.983 82.3691 385.662C81.9618 385.341 81.7581 384.908 81.7581 384.362C81.7581 383.825 81.9661 383.396 82.3821 383.075C82.7981 382.754 83.3485 382.594 84.0331 382.594H86.0351V382.048C86.0351 381.528 85.8965 381.134 85.6191 380.865C85.3505 380.588 84.9778 380.449 84.5011 380.449C84.1198 380.449 83.7818 380.536 83.4871 380.709C83.1925 380.874 82.9151 381.125 82.6551 381.463L81.9921 380.917C82.2781 380.449 82.6465 380.102 83.0971 379.877C83.5478 379.643 84.0375 379.526 84.5661 379.526ZM84.0981 385.311C84.4448 385.311 84.7655 385.237 85.0601 385.09C85.3548 384.934 85.5888 384.722 85.7621 384.453C85.9441 384.184 86.0351 383.89 86.0351 383.569V383.413H84.1501C83.7081 383.413 83.3701 383.491 83.1361 383.647C82.9021 383.794 82.7851 384.015 82.7851 384.31C82.7851 384.631 82.9108 384.878 83.1621 385.051C83.4135 385.224 83.7255 385.311 84.0981 385.311ZM92.4453 379.526C93.182 379.526 93.7583 379.756 94.1743 380.215C94.5903 380.674 94.7983 381.277 94.7983 382.022V386H93.7973V382.139C93.7973 381.636 93.6543 381.229 93.3683 380.917C93.091 380.605 92.7096 380.449 92.2243 380.449C91.739 380.449 91.3403 380.609 91.0283 380.93C90.7163 381.242 90.5603 381.645 90.5603 382.139V386H89.5593V379.669H90.4953V380.345C90.7293 380.085 91.011 379.886 91.3403 379.747C91.6783 379.6 92.0466 379.526 92.4453 379.526Z" fill="#D7D7D7" fill-opacity="0.92"/>
<path d="M182.683 377.42H188.052V378.33H183.697V381.281H187.311V382.204H183.697V386H182.683V377.42ZM195.019 383.14H190.014C190.074 383.764 190.321 384.267 190.755 384.648C191.188 385.029 191.717 385.22 192.341 385.22C193.06 385.22 193.706 384.934 194.278 384.362L194.863 385.038C194.533 385.385 194.152 385.658 193.719 385.857C193.294 386.048 192.83 386.143 192.328 386.143C191.704 386.143 191.136 386 190.625 385.714C190.113 385.419 189.71 385.021 189.416 384.518C189.121 384.015 188.974 383.456 188.974 382.841C188.974 382.234 189.117 381.68 189.403 381.177C189.689 380.666 190.079 380.263 190.573 379.968C191.067 379.673 191.613 379.526 192.211 379.526C192.748 379.526 193.238 379.647 193.68 379.89C194.122 380.133 194.468 380.471 194.72 380.904C194.971 381.337 195.097 381.831 195.097 382.386C195.097 382.629 195.071 382.88 195.019 383.14ZM192.185 380.436C191.656 380.436 191.197 380.605 190.807 380.943C190.417 381.272 190.165 381.71 190.053 382.256H194.07C194.061 381.693 193.875 381.251 193.511 380.93C193.155 380.601 192.713 380.436 192.185 380.436ZM200.584 379.526C201.173 379.526 201.706 379.673 202.183 379.968C202.659 380.254 203.032 380.653 203.301 381.164C203.578 381.667 203.717 382.226 203.717 382.841C203.717 383.456 203.582 384.015 203.314 384.518C203.045 385.021 202.672 385.419 202.196 385.714C201.719 386 201.186 386.143 200.597 386.143C200.103 386.143 199.639 386.043 199.206 385.844C198.772 385.636 198.434 385.354 198.192 384.999V386H197.256V376.25H198.257V380.592C198.508 380.263 198.837 380.003 199.245 379.812C199.661 379.621 200.107 379.526 200.584 379.526ZM200.441 385.22C200.865 385.22 201.247 385.116 201.585 384.908C201.931 384.7 202.2 384.414 202.391 384.05C202.59 383.686 202.69 383.279 202.69 382.828C202.69 382.377 202.59 381.97 202.391 381.606C202.2 381.242 201.931 380.96 201.585 380.761C201.247 380.553 200.865 380.449 200.441 380.449C200.051 380.449 199.687 380.536 199.349 380.709C199.019 380.882 198.751 381.151 198.543 381.515C198.343 381.87 198.244 382.312 198.244 382.841C198.244 383.37 198.348 383.812 198.556 384.167C198.764 384.522 199.032 384.787 199.362 384.96C199.7 385.133 200.059 385.22 200.441 385.22Z" fill="#D7D7D7" fill-opacity="0.92"/>
<path d="M299.074 377.277V386H298.06V379.851L295.317 383.569H294.953L292.197 379.825V386H291.183V377.277H291.547L295.122 382.23L298.723 377.277H299.074ZM303.974 379.526C304.72 379.526 305.318 379.747 305.768 380.189C306.219 380.631 306.444 381.268 306.444 382.1V386H305.508V385.181C305.274 385.493 304.975 385.731 304.611 385.896C304.247 386.061 303.836 386.143 303.376 386.143C302.726 386.143 302.193 385.983 301.777 385.662C301.37 385.341 301.166 384.908 301.166 384.362C301.166 383.825 301.374 383.396 301.79 383.075C302.206 382.754 302.757 382.594 303.441 382.594H305.443V382.048C305.443 381.528 305.305 381.134 305.027 380.865C304.759 380.588 304.386 380.449 303.909 380.449C303.528 380.449 303.19 380.536 302.895 380.709C302.601 380.874 302.323 381.125 302.063 381.463L301.4 380.917C301.686 380.449 302.055 380.102 302.505 379.877C302.956 379.643 303.446 379.526 303.974 379.526ZM303.506 385.311C303.853 385.311 304.174 385.237 304.468 385.09C304.763 384.934 304.997 384.722 305.17 384.453C305.352 384.184 305.443 383.89 305.443 383.569V383.413H303.558C303.116 383.413 302.778 383.491 302.544 383.647C302.31 383.794 302.193 384.015 302.193 384.31C302.193 384.631 302.319 384.878 302.57 385.051C302.822 385.224 303.134 385.311 303.506 385.311ZM312.334 379.669V380.553H311.957C311.602 380.553 311.273 380.627 310.969 380.774C310.666 380.921 310.423 381.134 310.241 381.411C310.059 381.688 309.968 382.022 309.968 382.412V386H308.967V379.669H309.903V380.566C310.129 380.263 310.415 380.029 310.761 379.864C311.117 379.699 311.485 379.617 311.866 379.617C312.005 379.617 312.161 379.634 312.334 379.669Z" fill="#D7D7D7" fill-opacity="0.92"/>
<path d="M404.909 384.258H400.697L399.969 386H398.903L402.621 377.277H402.998L406.716 386H405.637L404.909 384.258ZM402.803 379.123L401.087 383.348H404.519L402.803 379.123ZM411.953 379.526C412.551 379.526 413.088 379.673 413.565 379.968C414.042 380.254 414.414 380.648 414.683 381.151C414.952 381.654 415.086 382.213 415.086 382.828C415.086 383.443 414.947 384.007 414.67 384.518C414.401 385.021 414.029 385.419 413.552 385.714C413.075 386 412.542 386.143 411.953 386.143C411.485 386.143 411.043 386.052 410.627 385.87C410.22 385.679 409.886 385.419 409.626 385.09V388.34H408.625V379.669H409.561V380.683C409.804 380.319 410.137 380.037 410.562 379.838C410.995 379.63 411.459 379.526 411.953 379.526ZM411.81 385.22C412.235 385.22 412.616 385.12 412.954 384.921C413.301 384.713 413.569 384.427 413.76 384.063C413.959 383.699 414.059 383.292 414.059 382.841C414.059 382.39 413.959 381.983 413.76 381.619C413.569 381.255 413.301 380.969 412.954 380.761C412.616 380.553 412.235 380.449 411.81 380.449C411.429 380.449 411.069 380.536 410.731 380.709C410.402 380.882 410.133 381.147 409.925 381.502C409.717 381.857 409.613 382.299 409.613 382.828C409.613 383.357 409.713 383.803 409.912 384.167C410.12 384.522 410.389 384.787 410.718 384.96C411.056 385.133 411.42 385.22 411.81 385.22ZM420.606 379.669V380.553H420.229C419.874 380.553 419.544 380.627 419.241 380.774C418.938 380.921 418.695 381.134 418.513 381.411C418.331 381.688 418.24 382.022 418.24 382.412V386H417.239V379.669H418.175V380.566C418.4 380.263 418.686 380.029 419.033 379.864C419.388 379.699 419.757 379.617 420.138 379.617C420.277 379.617 420.433 379.634 420.606 379.669Z" fill="#D7D7D7" fill-opacity="0.92"/>
<path d="M516.074 377.277V386H515.06V379.851L512.317 383.569H511.953L509.197 379.825V386H508.183V377.277H508.547L512.122 382.23L515.723 377.277H516.074ZM520.974 379.526C521.72 379.526 522.318 379.747 522.768 380.189C523.219 380.631 523.444 381.268 523.444 382.1V386H522.508V385.181C522.274 385.493 521.975 385.731 521.611 385.896C521.247 386.061 520.836 386.143 520.376 386.143C519.726 386.143 519.193 385.983 518.777 385.662C518.37 385.341 518.166 384.908 518.166 384.362C518.166 383.825 518.374 383.396 518.79 383.075C519.206 382.754 519.757 382.594 520.441 382.594H522.443V382.048C522.443 381.528 522.305 381.134 522.027 380.865C521.759 380.588 521.386 380.449 520.909 380.449C520.528 380.449 520.19 380.536 519.895 380.709C519.601 380.874 519.323 381.125 519.063 381.463L518.4 380.917C518.686 380.449 519.055 380.102 519.505 379.877C519.956 379.643 520.446 379.526 520.974 379.526ZM520.506 385.311C520.853 385.311 521.174 385.237 521.468 385.09C521.763 384.934 521.997 384.722 522.17 384.453C522.352 384.184 522.443 383.89 522.443 383.569V383.413H520.558C520.116 383.413 519.778 383.491 519.544 383.647C519.31 383.794 519.193 384.015 519.193 384.31C519.193 384.631 519.319 384.878 519.57 385.051C519.822 385.224 520.134 385.311 520.506 385.311ZM531.531 379.669L528.411 386.884C528.169 387.439 527.87 387.842 527.514 388.093C527.168 388.353 526.752 388.483 526.266 388.483C525.946 388.483 525.621 388.44 525.291 388.353V387.508C525.621 387.551 525.876 387.573 526.058 387.573C526.388 387.573 526.665 387.499 526.89 387.352C527.124 387.205 527.324 386.94 527.488 386.559L527.826 385.805L525.2 379.669H526.279L528.372 384.713L530.465 379.669H531.531Z" fill="#D7D7D7" fill-opacity="0.92"/>
<path d="M617.812 386V385.129C618.167 385.181 618.479 385.207 618.748 385.207C619.207 385.207 619.558 385.116 619.801 384.934C620.044 384.743 620.165 384.405 620.165 383.92V377.42H621.179V384.011C621.179 384.73 620.98 385.268 620.581 385.623C620.182 385.97 619.636 386.143 618.943 386.143C618.605 386.143 618.228 386.095 617.812 386ZM626.339 386.143C625.845 386.143 625.399 386.035 625 385.818C624.601 385.593 624.285 385.281 624.051 384.882C623.826 384.475 623.713 384.007 623.713 383.478V379.669H624.701V383.543C624.701 384.054 624.857 384.462 625.169 384.765C625.481 385.068 625.871 385.22 626.339 385.22C626.798 385.22 627.18 385.068 627.483 384.765C627.795 384.453 627.951 384.046 627.951 383.543V379.669H628.952V383.478C628.952 384.007 628.835 384.475 628.601 384.882C628.376 385.281 628.064 385.593 627.665 385.818C627.266 386.035 626.824 386.143 626.339 386.143ZM634.352 379.526C635.088 379.526 635.665 379.756 636.081 380.215C636.497 380.674 636.705 381.277 636.705 382.022V386H635.704V382.139C635.704 381.636 635.561 381.229 635.275 380.917C634.997 380.605 634.616 380.449 634.131 380.449C633.645 380.449 633.247 380.609 632.935 380.93C632.623 381.242 632.467 381.645 632.467 382.139V386H631.466V379.669H632.402V380.345C632.636 380.085 632.917 379.886 633.247 379.747C633.585 379.6 633.953 379.526 634.352 379.526Z" fill="#D7D7D7" fill-opacity="0.92"/>
<path d="M724.312 386V385.129C724.667 385.181 724.979 385.207 725.248 385.207C725.707 385.207 726.058 385.116 726.301 384.934C726.544 384.743 726.665 384.405 726.665 383.92V377.42H727.679V384.011C727.679 384.73 727.48 385.268 727.081 385.623C726.682 385.97 726.136 386.143 725.443 386.143C725.105 386.143 724.728 386.095 724.312 386ZM732.839 386.143C732.345 386.143 731.899 386.035 731.5 385.818C731.101 385.593 730.785 385.281 730.551 384.882C730.326 384.475 730.213 384.007 730.213 383.478V379.669H731.201V383.543C731.201 384.054 731.357 384.462 731.669 384.765C731.981 385.068 732.371 385.22 732.839 385.22C733.298 385.22 733.68 385.068 733.983 384.765C734.295 384.453 734.451 384.046 734.451 383.543V379.669H735.452V383.478C735.452 384.007 735.335 384.475 735.101 384.882C734.876 385.281 734.564 385.593 734.165 385.818C733.766 386.035 733.324 386.143 732.839 386.143ZM737.966 376.25H738.967V386H737.966V376.25Z" fill="#D7D7D7" fill-opacity="0.92"/>
<defs>
<linearGradient id="paint0_linear_133_472" x1="56" y1="158.722" x2="122.226" y2="384.731" gradientUnits="userSpaceOnUse">
<stop stop-color="#C96C6A"/>
<stop offset="0.433011" stop-color="#A528AA"/>
<stop offset="1" stop-color="#3A0AD5"/>
</linearGradient>
<linearGradient id="paint1_linear_133_472" x1="392.623" y1="116.523" x2="392.623" y2="365.113" gradientUnits="userSpaceOnUse">
<stop stop-color="#A528AA"/>
<stop offset="1" stop-color="#A528AA" stop-opacity="0"/>
</linearGradient>
<linearGradient id="paint2_linear_133_472" x1="441" y1="144.35" x2="458.75" y2="155.6" gradientUnits="userSpaceOnUse">
<stop stop-color="#C96C6A"/>
<stop offset="0.705" stop-color="#A528AA"/>
</linearGradient>
</defs>
</svg>
