<svg width="911" height="78" viewBox="0 0 911 78" fill="none" xmlns="http://www.w3.org/2000/svg">
<g filter="url(#filter0_b_66_1793)">
<g clip-path="url(#clip0_66_1793)">
<path d="M2 22C2 10.9543 10.9543 2 22 2H889C900.046 2 909 10.9543 909 22V78H2V22Z" fill="#AF3D9A" fill-opacity="0.11"/>
<g opacity="0.25" filter="url(#filter1_f_66_1793)">
<ellipse cx="455" cy="-60.5" rx="454" ry="77.5" fill="url(#paint0_linear_66_1793)"/>
</g>
</g>
<path d="M909 78.65H909.65V78V22C909.65 10.5953 900.405 1.35 889 1.35H22C10.5953 1.35 1.35 10.5953 1.35 22V78V78.65H2H909Z" stroke="url(#paint1_linear_66_1793)" stroke-width="1.3"/>
</g>
<defs>
<filter id="filter0_b_66_1793" x="-47.3" y="-47.2998" width="1005.6" height="174.6" filterUnits="userSpaceOnUse" color-interpolation-filters="sRGB">
<feFlood flood-opacity="0" result="BackgroundImageFix"/>
<feGaussianBlur in="BackgroundImageFix" stdDeviation="24"/>
<feComposite in2="SourceAlpha" operator="in" result="effect1_backgroundBlur_66_1793"/>
<feBlend mode="normal" in="SourceGraphic" in2="effect1_backgroundBlur_66_1793" result="shape"/>
</filter>
<filter id="filter1_f_66_1793" x="-199" y="-338" width="1308" height="555" filterUnits="userSpaceOnUse" color-interpolation-filters="sRGB">
<feFlood flood-opacity="0" result="BackgroundImageFix"/>
<feBlend mode="normal" in="SourceGraphic" in2="BackgroundImageFix" result="shape"/>
<feGaussianBlur stdDeviation="100" result="effect1_foregroundBlur_66_1793"/>
</filter>
<linearGradient id="paint0_linear_66_1793" x1="1" y1="-85.6875" x2="77.3978" y2="197.967" gradientUnits="userSpaceOnUse">
<stop stop-color="#C96C6A"/>
<stop offset="0.433011" stop-color="#A528AA"/>
<stop offset="1" stop-color="#3A0AD5"/>
</linearGradient>
<linearGradient id="paint1_linear_66_1793" x1="511.211" y1="2" x2="511.597" y2="77.998" gradientUnits="userSpaceOnUse">
<stop stop-color="#C96C6A"/>
<stop offset="0.433011" stop-color="#A528AA"/>
<stop offset="1" stop-color="#340BCF" stop-opacity="0.1"/>
</linearGradient>
<clipPath id="clip0_66_1793">
<path d="M2 22C2 10.9543 10.9543 2 22 2H889C900.046 2 909 10.9543 909 22V78H2V22Z" fill="white"/>
</clipPath>
</defs>
</svg>
