<svg width="21" height="21" viewBox="0 0 21 21" fill="none" xmlns="http://www.w3.org/2000/svg">
<mask id="mask0_66_7991" style="mask-type:alpha" maskUnits="userSpaceOnUse" x="0" y="0" width="21" height="21">
<rect x="0.5" y="0.5" width="20" height="20" fill="#D9D9D9"/>
</mask>
<g mask="url(#mask0_66_7991)">
<path d="M17.1667 10.5C16.9444 10.5 16.7465 10.4201 16.5729 10.2604C16.3993 10.1007 16.2986 9.90278 16.2708 9.66667C16.0903 8.375 15.5451 7.27431 14.6354 6.36458C13.7257 5.45486 12.625 4.90972 11.3333 4.72917C11.0972 4.70139 10.8993 4.60417 10.7396 4.4375C10.5799 4.27083 10.5 4.06944 10.5 3.83333C10.5 3.59722 10.5833 3.39931 10.75 3.23958C10.9167 3.07986 11.1111 3.01389 11.3333 3.04167C13.0833 3.23611 14.5764 3.95139 15.8125 5.1875C17.0486 6.42361 17.7639 7.91667 17.9583 9.66667C17.9861 9.88889 17.9201 10.0833 17.7604 10.25C17.6007 10.4167 17.4028 10.5 17.1667 10.5ZM13.6875 10.5C13.5069 10.5 13.3472 10.4375 13.2083 10.3125C13.0694 10.1875 12.9653 10.0208 12.8958 9.8125C12.7847 9.40972 12.5729 9.05208 12.2604 8.73958C11.9479 8.42708 11.5903 8.21528 11.1875 8.10417C10.9792 8.03472 10.8125 7.93056 10.6875 7.79167C10.5625 7.65278 10.5 7.48611 10.5 7.29167C10.5 7.01389 10.5972 6.78819 10.7917 6.61458C10.9861 6.44097 11.2014 6.38194 11.4375 6.4375C12.2153 6.61806 12.8854 6.98958 13.4479 7.55208C14.0104 8.11458 14.3819 8.78472 14.5625 9.5625C14.6181 9.79861 14.5556 10.0139 14.375 10.2083C14.1944 10.4028 13.9653 10.5 13.6875 10.5ZM17.125 18C15.3889 18 13.6736 17.6215 11.9792 16.8646C10.2847 16.1076 8.74306 15.0347 7.35417 13.6458C5.96528 12.2569 4.89236 10.7153 4.13542 9.02083C3.37847 7.32639 3 5.61111 3 3.875C3 3.625 3.08333 3.41667 3.25 3.25C3.41667 3.08333 3.625 3 3.875 3H7.25C7.44444 3 7.61806 3.06597 7.77083 3.19792C7.92361 3.32986 8.01389 3.48611 8.04167 3.66667L8.58333 6.58333C8.61111 6.80556 8.60417 6.99306 8.5625 7.14583C8.52083 7.29861 8.44444 7.43056 8.33333 7.54167L6.3125 9.58333C6.59028 10.0972 6.92014 10.5938 7.30208 11.0729C7.68403 11.5521 8.10417 12.0139 8.5625 12.4583C8.99306 12.8889 9.44444 13.2882 9.91667 13.6562C10.3889 14.0243 10.8889 14.3611 11.4167 14.6667L13.375 12.7083C13.5 12.5833 13.6632 12.4896 13.8646 12.4271C14.066 12.3646 14.2639 12.3472 14.4583 12.375L17.3333 12.9583C17.5278 13.0139 17.6875 13.1146 17.8125 13.2604C17.9375 13.4062 18 13.5694 18 13.75V17.125C18 17.375 17.9167 17.5833 17.75 17.75C17.5833 17.9167 17.375 18 17.125 18ZM5.52083 8L6.89583 6.625L6.54167 4.66667H4.6875C4.75694 5.23611 4.85417 5.79861 4.97917 6.35417C5.10417 6.90972 5.28472 7.45833 5.52083 8ZM12.9792 15.4583C13.5208 15.6944 14.0729 15.8819 14.6354 16.0208C15.1979 16.1597 15.7639 16.25 16.3333 16.2917V14.4583L14.375 14.0625L12.9792 15.4583Z" fill="url(#paint0_linear_66_7991)"/>
</g>
<defs>
<linearGradient id="paint0_linear_66_7991" x1="3" y1="8.0625" x2="16.3125" y2="16.5" gradientUnits="userSpaceOnUse">
<stop stop-color="#C96C6A"/>
<stop offset="0.705" stop-color="#A528AA"/>
</linearGradient>
</defs>
</svg>
